<mxfile host="Electron" modified="2024-05-03T17:17:12.010Z" agent="Mozilla/5.0 (X11; Linux x86_64) AppleWebKit/537.36 (KHTML, like Gecko) draw.io/24.2.5 Chrome/120.0.6099.109 Electron/28.1.0 Safari/537.36" etag="l_6uCAoK0JErm3SKMfag" version="24.2.5" type="device">
  <diagram id="C5RBs43oDa-KdzZeNtuy" name="Page-1">
    <mxGraphModel dx="1434" dy="843" grid="1" gridSize="10" guides="1" tooltips="1" connect="1" arrows="1" fold="1" page="1" pageScale="1" pageWidth="827" pageHeight="1169" math="0" shadow="0">
      <root>
        <mxCell id="WIyWlLk6GJQsqaUBKTNV-0" />
        <mxCell id="WIyWlLk6GJQsqaUBKTNV-1" parent="WIyWlLk6GJQsqaUBKTNV-0" />
        <mxCell id="nfoaKBk2oBotQZwMpjxo-24" style="edgeStyle=orthogonalEdgeStyle;rounded=0;orthogonalLoop=1;jettySize=auto;html=1;exitX=1;exitY=0.5;exitDx=0;exitDy=0;entryX=0;entryY=0.5;entryDx=0;entryDy=0;endArrow=blockThin;endFill=1;startArrow=diamondThin;startFill=1;endSize=10;startSize=10;" parent="WIyWlLk6GJQsqaUBKTNV-1" source="nfoaKBk2oBotQZwMpjxo-0" target="nfoaKBk2oBotQZwMpjxo-19" edge="1">
          <mxGeometry relative="1" as="geometry" />
        </mxCell>
        <mxCell id="nfoaKBk2oBotQZwMpjxo-0" value="&lt;font style=&quot;font-size: 14px;&quot;&gt;&lt;b style=&quot;&quot;&gt;Figura&lt;/b&gt;&lt;/font&gt;" style="rounded=0;whiteSpace=wrap;html=1;" parent="WIyWlLk6GJQsqaUBKTNV-1" vertex="1">
          <mxGeometry x="340" y="760" width="90" height="30" as="geometry" />
        </mxCell>
        <mxCell id="nfoaKBk2oBotQZwMpjxo-7" style="edgeStyle=orthogonalEdgeStyle;rounded=0;orthogonalLoop=1;jettySize=auto;html=1;exitX=0.5;exitY=0;exitDx=0;exitDy=0;entryX=0.5;entryY=1;entryDx=0;entryDy=0;endSize=8;startSize=8;endArrow=block;endFill=0;" parent="WIyWlLk6GJQsqaUBKTNV-1" source="nfoaKBk2oBotQZwMpjxo-3" target="nfoaKBk2oBotQZwMpjxo-0" edge="1">
          <mxGeometry relative="1" as="geometry" />
        </mxCell>
        <mxCell id="nfoaKBk2oBotQZwMpjxo-3" value="&lt;font style=&quot;font-size: 14px;&quot;&gt;&lt;b style=&quot;&quot;&gt;Esfera&lt;/b&gt;&lt;/font&gt;" style="rounded=0;whiteSpace=wrap;html=1;" parent="WIyWlLk6GJQsqaUBKTNV-1" vertex="1">
          <mxGeometry x="280" y="830" width="90" height="30" as="geometry" />
        </mxCell>
        <mxCell id="nfoaKBk2oBotQZwMpjxo-8" style="edgeStyle=orthogonalEdgeStyle;rounded=0;orthogonalLoop=1;jettySize=auto;html=1;exitX=0.5;exitY=0;exitDx=0;exitDy=0;entryX=0.5;entryY=1;entryDx=0;entryDy=0;endSize=8;startSize=8;endArrow=block;endFill=0;" parent="WIyWlLk6GJQsqaUBKTNV-1" source="nfoaKBk2oBotQZwMpjxo-4" target="nfoaKBk2oBotQZwMpjxo-0" edge="1">
          <mxGeometry relative="1" as="geometry" />
        </mxCell>
        <mxCell id="nfoaKBk2oBotQZwMpjxo-4" value="&lt;font style=&quot;font-size: 14px;&quot;&gt;&lt;b style=&quot;&quot;&gt;Cubo&lt;/b&gt;&lt;/font&gt;" style="rounded=0;whiteSpace=wrap;html=1;" parent="WIyWlLk6GJQsqaUBKTNV-1" vertex="1">
          <mxGeometry x="390" y="830" width="90" height="30" as="geometry" />
        </mxCell>
        <mxCell id="nfoaKBk2oBotQZwMpjxo-10" value="&lt;font style=&quot;font-size: 14px;&quot;&gt;&lt;b style=&quot;&quot;&gt;Figura&lt;/b&gt;&lt;/font&gt;" style="rounded=0;whiteSpace=wrap;html=1;" parent="WIyWlLk6GJQsqaUBKTNV-1" vertex="1">
          <mxGeometry x="790" y="580" width="90" height="30" as="geometry" />
        </mxCell>
        <mxCell id="nfoaKBk2oBotQZwMpjxo-11" style="edgeStyle=orthogonalEdgeStyle;rounded=0;orthogonalLoop=1;jettySize=auto;html=1;exitX=0.5;exitY=0;exitDx=0;exitDy=0;entryX=0.5;entryY=1;entryDx=0;entryDy=0;endArrow=block;endFill=0;endSize=8;startSize=8;" parent="WIyWlLk6GJQsqaUBKTNV-1" source="nfoaKBk2oBotQZwMpjxo-12" target="nfoaKBk2oBotQZwMpjxo-10" edge="1">
          <mxGeometry relative="1" as="geometry" />
        </mxCell>
        <mxCell id="nfoaKBk2oBotQZwMpjxo-12" value="&lt;font style=&quot;font-size: 14px;&quot;&gt;&lt;b style=&quot;&quot;&gt;EsferaAzul&lt;/b&gt;&lt;/font&gt;" style="rounded=0;whiteSpace=wrap;html=1;" parent="WIyWlLk6GJQsqaUBKTNV-1" vertex="1">
          <mxGeometry x="620" y="650" width="90" height="30" as="geometry" />
        </mxCell>
        <mxCell id="nfoaKBk2oBotQZwMpjxo-13" style="edgeStyle=orthogonalEdgeStyle;rounded=0;orthogonalLoop=1;jettySize=auto;html=1;exitX=0.5;exitY=0;exitDx=0;exitDy=0;entryX=0.5;entryY=1;entryDx=0;entryDy=0;endSize=8;startSize=8;endArrow=block;endFill=0;" parent="WIyWlLk6GJQsqaUBKTNV-1" source="nfoaKBk2oBotQZwMpjxo-14" target="nfoaKBk2oBotQZwMpjxo-10" edge="1">
          <mxGeometry relative="1" as="geometry" />
        </mxCell>
        <mxCell id="nfoaKBk2oBotQZwMpjxo-14" value="&lt;font style=&quot;font-size: 14px;&quot;&gt;&lt;b style=&quot;&quot;&gt;EsferaRoja&lt;/b&gt;&lt;/font&gt;" style="rounded=0;whiteSpace=wrap;html=1;" parent="WIyWlLk6GJQsqaUBKTNV-1" vertex="1">
          <mxGeometry x="730" y="650" width="90" height="30" as="geometry" />
        </mxCell>
        <mxCell id="nfoaKBk2oBotQZwMpjxo-15" style="edgeStyle=orthogonalEdgeStyle;rounded=0;orthogonalLoop=1;jettySize=auto;html=1;exitX=0.5;exitY=0;exitDx=0;exitDy=0;entryX=0.5;entryY=1;entryDx=0;entryDy=0;endSize=8;startSize=8;endArrow=block;endFill=0;" parent="WIyWlLk6GJQsqaUBKTNV-1" source="nfoaKBk2oBotQZwMpjxo-16" target="nfoaKBk2oBotQZwMpjxo-10" edge="1">
          <mxGeometry relative="1" as="geometry" />
        </mxCell>
        <mxCell id="nfoaKBk2oBotQZwMpjxo-16" value="&lt;font style=&quot;font-size: 14px;&quot;&gt;&lt;b style=&quot;&quot;&gt;CuboAzul&lt;/b&gt;&lt;/font&gt;" style="rounded=0;whiteSpace=wrap;html=1;" parent="WIyWlLk6GJQsqaUBKTNV-1" vertex="1">
          <mxGeometry x="840" y="650" width="90" height="30" as="geometry" />
        </mxCell>
        <mxCell id="nfoaKBk2oBotQZwMpjxo-17" style="edgeStyle=orthogonalEdgeStyle;rounded=0;orthogonalLoop=1;jettySize=auto;html=1;exitX=0.5;exitY=0;exitDx=0;exitDy=0;entryX=0.5;entryY=1;entryDx=0;entryDy=0;endSize=8;startSize=8;endArrow=block;endFill=0;" parent="WIyWlLk6GJQsqaUBKTNV-1" source="nfoaKBk2oBotQZwMpjxo-18" target="nfoaKBk2oBotQZwMpjxo-10" edge="1">
          <mxGeometry relative="1" as="geometry" />
        </mxCell>
        <mxCell id="nfoaKBk2oBotQZwMpjxo-18" value="&lt;font style=&quot;font-size: 14px;&quot;&gt;&lt;b style=&quot;&quot;&gt;CuboRojo&lt;/b&gt;&lt;/font&gt;" style="rounded=0;whiteSpace=wrap;html=1;" parent="WIyWlLk6GJQsqaUBKTNV-1" vertex="1">
          <mxGeometry x="950" y="650" width="90" height="30" as="geometry" />
        </mxCell>
        <mxCell id="nfoaKBk2oBotQZwMpjxo-19" value="&lt;font style=&quot;font-size: 14px;&quot;&gt;&lt;b style=&quot;&quot;&gt;Color&lt;/b&gt;&lt;/font&gt;" style="rounded=0;whiteSpace=wrap;html=1;" parent="WIyWlLk6GJQsqaUBKTNV-1" vertex="1">
          <mxGeometry x="580" y="760" width="90" height="30" as="geometry" />
        </mxCell>
        <mxCell id="nfoaKBk2oBotQZwMpjxo-20" style="edgeStyle=orthogonalEdgeStyle;rounded=0;orthogonalLoop=1;jettySize=auto;html=1;exitX=0.5;exitY=0;exitDx=0;exitDy=0;entryX=0.5;entryY=1;entryDx=0;entryDy=0;endSize=8;startSize=8;endArrow=block;endFill=0;" parent="WIyWlLk6GJQsqaUBKTNV-1" source="nfoaKBk2oBotQZwMpjxo-21" target="nfoaKBk2oBotQZwMpjxo-19" edge="1">
          <mxGeometry relative="1" as="geometry" />
        </mxCell>
        <mxCell id="nfoaKBk2oBotQZwMpjxo-21" value="&lt;font style=&quot;font-size: 14px;&quot;&gt;&lt;b style=&quot;&quot;&gt;Rojo&lt;/b&gt;&lt;/font&gt;" style="rounded=0;whiteSpace=wrap;html=1;" parent="WIyWlLk6GJQsqaUBKTNV-1" vertex="1">
          <mxGeometry x="520" y="830" width="90" height="30" as="geometry" />
        </mxCell>
        <mxCell id="nfoaKBk2oBotQZwMpjxo-22" style="edgeStyle=orthogonalEdgeStyle;rounded=0;orthogonalLoop=1;jettySize=auto;html=1;exitX=0.5;exitY=0;exitDx=0;exitDy=0;entryX=0.5;entryY=1;entryDx=0;entryDy=0;endSize=8;startSize=8;endArrow=block;endFill=0;" parent="WIyWlLk6GJQsqaUBKTNV-1" source="nfoaKBk2oBotQZwMpjxo-23" target="nfoaKBk2oBotQZwMpjxo-19" edge="1">
          <mxGeometry relative="1" as="geometry" />
        </mxCell>
        <mxCell id="nfoaKBk2oBotQZwMpjxo-23" value="&lt;font style=&quot;font-size: 14px;&quot;&gt;&lt;b style=&quot;&quot;&gt;Azul&lt;/b&gt;&lt;/font&gt;" style="rounded=0;whiteSpace=wrap;html=1;" parent="WIyWlLk6GJQsqaUBKTNV-1" vertex="1">
          <mxGeometry x="630" y="830" width="90" height="30" as="geometry" />
        </mxCell>
        <mxCell id="nfoaKBk2oBotQZwMpjxo-25" value="&lt;b&gt;&lt;font style=&quot;font-size: 18px;&quot; color=&quot;#ff0000&quot;&gt;Tiene&lt;/font&gt;&lt;/b&gt;" style="text;html=1;align=center;verticalAlign=middle;resizable=0;points=[];autosize=1;strokeColor=none;fillColor=none;" parent="WIyWlLk6GJQsqaUBKTNV-1" vertex="1">
          <mxGeometry x="465" y="743" width="70" height="40" as="geometry" />
        </mxCell>
        <mxCell id="-RIzuPLuoR_vBT0Kffm2-0" value="&lt;b&gt;Direct inputs&lt;/b&gt;" style="rounded=0;whiteSpace=wrap;html=1;strokeWidth=0;" vertex="1" parent="WIyWlLk6GJQsqaUBKTNV-1">
          <mxGeometry x="354" y="110" width="120" height="60" as="geometry" />
        </mxCell>
      </root>
    </mxGraphModel>
  </diagram>
</mxfile>
